<svg version="1.1" width="80.974" height="90.482" xmlns="http://www.w3.org/2000/svg" xmlns:xlink="http://www.w3.org/1999/xlink" id="svg4360" overflow="hidden"><defs id="defs4364"></defs><path d=" M 76.214 19.04 L 71.444 19.04 L 71.444 14.28 L 66.683 14.28 L 66.683 9.52 L 61.923 9.52 L 57.162 9.52 L 57.162 4.76 L 52.402 4.76 L 47.642 4.76 L 47.642 0 L 42.882 0 L 38.092 0 L 33.332 0 L 33.332 4.76 L 28.572 4.76 L 23.812 4.76 L 23.812 9.52 L 19.051 9.52 L 14.291 9.52 L 14.291 14.28 L 9.53 14.28 L 9.53 19.04 L 4.76 19.04 L 1.95399e-14 19.04 L 1.95399e-14 23.8 L 1.95399e-14 28.56 L 1.95399e-14 33.32 L 1.95399e-14 38.08 L 1.95399e-14 42.85 L 1.95399e-14 47.63 L 1.95399e-14 52.39 L 1.95399e-14 57.15 L 1.95399e-14 61.91 L 1.95399e-14 66.67 L 1.95399e-14 71.431 L 4.76 71.431 L 9.53 71.431 L 9.53 76.191 L 14.291 76.191 L 14.291 80.962 L 19.051 80.962 L 23.812 80.962 L 23.812 85.722 L 28.572 85.722 L 33.332 85.722 L 33.332 90.482 L 38.092 90.482 L 42.882 90.482 L 47.642 90.482 L 47.642 85.722 L 52.402 85.722 L 57.162 85.722 L 57.162 80.962 L 61.923 80.962 L 66.683 80.962 L 66.683 76.191 L 71.444 76.191 L 71.444 71.431 L 76.214 71.431 L 80.974 71.431 L 80.974 66.67 L 80.974 61.91 L 80.974 57.15 L 80.974 52.39 L 80.974 47.63 L 80.974 42.85 L 80.974 38.08 L 80.974 33.32 L 80.974 28.56 L 80.974 23.8 L 80.974 19.04 L 76.214 19.04 Z M 38.093 42.85 L 38.093 38.08 L 33.333 38.08 L 28.573 38.08 L 28.573 33.32 L 23.813 33.32 L 23.813 28.56 L 19.052 28.56 L 14.292 28.56 L 14.292 23.8 L 14.292 19.04 L 19.052 19.04 L 19.052 14.28 L 23.813 14.28 L 28.573 14.28 L 28.573 9.52 L 33.333 9.52 L 38.093 9.52 L 38.093 4.76 L 42.883 4.76 L 42.883 9.52 L 47.643 9.52 L 52.403 9.52 L 52.403 14.28 L 57.163 14.28 L 61.924 14.28 L 61.924 19.04 L 66.684 19.04 L 66.684 23.8 L 66.684 28.56 L 61.924 28.56 L 57.163 28.56 L 57.163 33.32 L 52.403 33.32 L 52.403 38.08 L 47.643 38.08 L 42.883 38.08 L 42.883 42.85 L 38.093 42.85 Z M 76.214 33.32 L 76.214 38.08 L 76.214 42.85 L 76.214 47.63 L 76.214 52.39 L 76.214 57.15 L 76.214 61.91 L 76.214 66.67 L 71.444 66.67 L 66.683 66.67 L 66.683 71.431 L 61.923 71.431 L 61.923 76.191 L 57.162 76.191 L 52.402 76.191 L 52.402 80.962 L 47.642 80.962 L 42.882 80.962 L 42.882 76.191 L 42.882 71.431 L 42.882 66.67 L 42.882 61.91 L 42.882 57.15 L 42.882 52.39 L 42.882 47.63 L 47.642 47.63 L 47.642 42.85 L 52.402 42.85 L 57.162 42.85 L 57.162 38.08 L 61.923 38.08 L 61.923 33.32 L 66.683 33.32 L 71.444 33.32 L 71.444 28.56 L 76.214 28.56 L 76.214 33.32 Z" id="path4" stroke="none" stroke-opacity="1" fill="#00BF28" fill-opacity="1"/><path d=" M 42.8576 64.2665 L 42.8576 47.847 L 45.2411 47.847 L 47.6246 47.847 L 47.6246 45.4636 L 47.6246 43.0801 L 52.3915 43.0801 L 57.1585 43.0801 L 57.1585 40.6966 L 57.1585 38.3131 L 59.542 38.3131 L 61.9254 38.3131 L 61.9254 35.9297 L 61.9254 33.5462 L 66.6924 33.5462 L 71.4593 33.5462 L 71.4593 31.1627 L 71.4593 28.7792 L 73.8428 28.7792 L 76.2263 28.7792 L 76.2263 47.5822 L 76.2263 66.3852 L 71.4593 66.3852 L 66.6924 66.3852 L 66.6924 68.7686 L 66.6924 71.1521 L 64.3089 71.1521 L 61.9254 71.1521 L 61.9254 73.5356 L 61.9254 75.9191 L 57.1585 75.9191 L 52.3915 75.9191 L 52.3915 78.3025 L 52.3915 80.686 L 47.6246 80.686 L 42.8576 80.686 L 42.8576 64.2665 Z" id="path4142" stroke="#000000" stroke-width="1.25" stroke-linecap="round" stroke-linejoin="round" stroke-miterlimit="4" stroke-dasharray="" stroke-dashoffset="0" stroke-opacity="1" fill="#000000" fill-opacity="1" opacity="1"/><path d=" M 38.0907 40.167 L 38.0907 37.7835 L 33.3237 37.7835 L 28.5568 37.7835 L 28.5568 35.4 L 28.5568 33.0165 L 26.1733 33.0165 L 23.7898 33.0165 L 23.7898 30.6331 L 23.7898 28.2496 L 19.2877 28.2496 L 14.7856 28.2496 L 14.7856 23.7779 L 14.7856 19.3062 L 17.0367 19.1434 C 19.2768 18.9813 19.2885 18.9696 19.4506 16.7294 L 19.6135 14.4784 L 24.0851 14.4784 L 28.5568 14.4784 L 28.5568 12.0949 L 28.5568 9.71144 L 33.3237 9.71144 L 38.0907 9.71144 L 38.0907 7.32797 L 38.0907 4.94449 L 40.4742 4.94449 L 42.8576 4.94449 L 42.8576 7.32797 L 42.8576 9.71144 L 47.6246 9.71144 L 52.3915 9.71144 L 52.3915 12.0949 L 52.3915 14.4784 L 57.1585 14.4784 L 61.9254 14.4784 L 61.9254 16.8619 L 61.9254 19.2453 L 64.3089 19.2453 L 66.6924 19.2453 L 66.6924 23.7475 L 66.6924 28.2496 L 61.9254 28.2496 L 57.1585 28.2496 L 57.1585 30.6331 L 57.1585 33.0165 L 54.775 33.0165 L 52.3915 33.0165 L 52.3915 35.4 L 52.3915 37.7835 L 47.6246 37.7835 L 42.8576 37.7835 L 42.8576 40.167 L 42.8576 42.5504 L 40.4742 42.5504 L 38.0907 42.5504 L 38.0907 40.167 Z" id="path4144" stroke="#000000" stroke-width="0.662076" stroke-linecap="round" stroke-linejoin="round" stroke-miterlimit="4" stroke-dasharray="" stroke-dashoffset="0" stroke-opacity="1" fill="#000000" fill-opacity="1" opacity="1"/></svg>